<?xml version="1.0" encoding="utf-8" standalone="no"?><!DOCTYPE svg PUBLIC "-//W3C//DTD SVG 20010904//EN" "http://www.w3.org/TR/2001/REC-SVG-20010904/DTD/svg10.dtd"><svg xmlns="http://www.w3.org/2000/svg" width="609" height="340" xmlns:xlink="http://www.w3.org/1999/xlink"><source><![CDATA[ .section { stroke: none; opacity: 0.2;} .section0 { fill: rgba(102, 102, 255, 0.490196);} .section2 { fill: rgb(255, 244, 0);} .section1, .section3 { fill: white; opacity: 0.2;} .sectionTitle0 { fill: rgb(51, 51, 51);} .sectionTitle1 { fill: rgb(51, 51, 51);} .sectionTitle2 { fill: rgb(51, 51, 51);} .sectionTitle { text-anchor: start; font-size: 11px;} .grid .tick { stroke: lightgrey; opacity: 0.3; shape-rendering: crispEdges;} .grid path { stroke-width: 0;} .today { fill: none; stroke: red; stroke-width: 2px;} .task { stroke-width: 2;} .taskText { text-anchor: middle; font-size: 11px;} .taskText0, .taskText1, .taskText2, .taskText3 { fill: white;} .task0, .task1, .task2, .task3 { fill: rgb(138, 144, 221); stroke: rgb(83, 79, 188);} .titleText { text-anchor: middle; font-size: 18px; fill: black;} 10/2911/0511/1211/1911/2612/0312/1012/1712/2412/3101/0701/1401/21需求分析       技术选型       可行性报告     资料查阅      架构设计      模块划分      编码          调试优化      发布验收项目确定项目实施发布验收项目开发流程]]></source><style type="text/css" title="mermaid-svg-internal-css"> .section { stroke: none; opacity: 0.2;} .section0 { fill: rgba(102, 102, 255, 0.490196);} .section2 { fill: rgb(255, 244, 0);} .section1, .section3 { fill: white; opacity: 0.2;} .sectionTitle0 { fill: rgb(51, 51, 51);} .sectionTitle1 { fill: rgb(51, 51, 51);} .sectionTitle2 { fill: rgb(51, 51, 51);} .sectionTitle { text-anchor: start; font-size: 11px;} .grid .tick { stroke: lightgrey; opacity: 0.3; shape-rendering: crispEdges;} .grid path { stroke-width: 0;} .today { fill: none; stroke: red; stroke-width: 2px;} .task { stroke-width: 2;} .taskText { text-anchor: middle; font-size: 11px;} .taskText0, .taskText1, .taskText2, .taskText3 { fill: white;} .task0, .task1, .task2, .task3 { fill: rgb(138, 144, 221); stroke: rgb(83, 79, 188);} .titleText { text-anchor: middle; font-size: 18px; fill: black;} </style><g></g><g class="grid" transform="translate(75, 290)"><g class="tick" transform="translate(16,0)" style="opacity: 1;"><line y2="-255" x2="0"></line><text dy="1em" y="3" x="0" fill="#000" stroke="none" font-size="10" style="text-anchor: middle;">10/29</text></g><g class="tick" transform="translate(53,0)" style="opacity: 1;"><line y2="-255" x2="0"></line><text dy="1em" y="3" x="0" fill="#000" stroke="none" font-size="10" style="text-anchor: middle;">11/05</text></g><g class="tick" transform="translate(90,0)" style="opacity: 1;"><line y2="-255" x2="0"></line><text dy="1em" y="3" x="0" fill="#000" stroke="none" font-size="10" style="text-anchor: middle;">11/12</text></g><g class="tick" transform="translate(127,0)" style="opacity: 1;"><line y2="-255" x2="0"></line><text dy="1em" y="3" x="0" fill="#000" stroke="none" font-size="10" style="text-anchor: middle;">11/19</text></g><g class="tick" transform="translate(164,0)" style="opacity: 1;"><line y2="-255" x2="0"></line><text dy="1em" y="3" x="0" fill="#000" stroke="none" font-size="10" style="text-anchor: middle;">11/26</text></g><g class="tick" transform="translate(200,0)" style="opacity: 1;"><line y2="-255" x2="0"></line><text dy="1em" y="3" x="0" fill="#000" stroke="none" font-size="10" style="text-anchor: middle;">12/03</text></g><g class="tick" transform="translate(237,0)" style="opacity: 1;"><line y2="-255" x2="0"></line><text dy="1em" y="3" x="0" fill="#000" stroke="none" font-size="10" style="text-anchor: middle;">12/10</text></g><g class="tick" transform="translate(274,0)" style="opacity: 1;"><line y2="-255" x2="0"></line><text dy="1em" y="3" x="0" fill="#000" stroke="none" font-size="10" style="text-anchor: middle;">12/17</text></g><g class="tick" transform="translate(311,0)" style="opacity: 1;"><line y2="-255" x2="0"></line><text dy="1em" y="3" x="0" fill="#000" stroke="none" font-size="10" style="text-anchor: middle;">12/24</text></g><g class="tick" transform="translate(348,0)" style="opacity: 1;"><line y2="-255" x2="0"></line><text dy="1em" y="3" x="0" fill="#000" stroke="none" font-size="10" style="text-anchor: middle;">12/31</text></g><g class="tick" transform="translate(385,0)" style="opacity: 1;"><line y2="-255" x2="0"></line><text dy="1em" y="3" x="0" fill="#000" stroke="none" font-size="10" style="text-anchor: middle;">01/07</text></g><g class="tick" transform="translate(422,0)" style="opacity: 1;"><line y2="-255" x2="0"></line><text dy="1em" y="3" x="0" fill="#000" stroke="none" font-size="10" style="text-anchor: middle;">01/14</text></g><g class="tick" transform="translate(459,0)" style="opacity: 1;"><line y2="-255" x2="0"></line><text dy="1em" y="3" x="0" fill="#000" stroke="none" font-size="10" style="text-anchor: middle;">01/21</text></g><path class="domain" d="M0,0V0H459V0"></path></g><g><rect x="0" y="48" width="571.5" height="24" class="section section0"></rect><rect x="0" y="72" width="571.5" height="24" class="section section0"></rect><rect x="0" y="96" width="571.5" height="24" class="section section0"></rect><rect x="0" y="120" width="571.5" height="24" class="section section1"></rect><rect x="0" y="144" width="571.5" height="24" class="section section1"></rect><rect x="0" y="168" width="571.5" height="24" class="section section1"></rect><rect x="0" y="192" width="571.5" height="24" class="section section1"></rect><rect x="0" y="216" width="571.5" height="24" class="section section1"></rect><rect x="0" y="240" width="571.5" height="24" class="section section2"></rect><rect x="0" y="264" width="571.5" height="24" class="section section2"></rect></g><g><rect rx="3" ry="3" x="75" y="50" width="21" height="20" class="task  task0"></rect><rect rx="3" ry="3" x="96" y="74" width="11" height="20" class="task  task0"></rect><rect rx="3" ry="3" x="107" y="98" width="10" height="20" class="task  task0"></rect><rect rx="3" ry="3" x="107" y="122" width="52" height="20" class="task  task1"></rect><rect rx="3" ry="3" x="149" y="146" width="79" height="20" class="task  task1"></rect><rect rx="3" ry="3" x="181" y="170" width="63" height="20" class="task  task1"></rect><rect rx="3" ry="3" x="207" y="194" width="221" height="20" class="task  task1"></rect><rect rx="3" ry="3" x="428" y="218" width="80" height="20" class="task  task1"></rect><rect rx="3" ry="3" x="508" y="242" width="10" height="20" class="task  task2"></rect><rect rx="3" ry="3" x="518" y="266" width="16" height="20" class="task  task2"></rect><text font-size="11" x="101" y="63.5" text-height="20" class="taskTextOutsideRight taskTextOutside0 ">需求分析       </text><text font-size="11" x="112" y="87.5" text-height="20" class="taskTextOutsideRight taskTextOutside0 ">技术选型       </text><text font-size="11" x="122" y="111.5" text-height="20" class="taskTextOutsideRight taskTextOutside0 ">可行性报告     </text><text font-size="11" x="133" y="135.5" text-height="20" class="taskText taskText1 ">资料查阅      </text><text font-size="11" x="188.5" y="159.5" text-height="20" class="taskText taskText1 ">架构设计      </text><text font-size="11" x="212.5" y="183.5" text-height="20" class="taskText taskText1 ">模块划分      </text><text font-size="11" x="317.5" y="207.5" text-height="20" class="taskText taskText1 ">编码          </text><text font-size="11" x="468" y="231.5" text-height="20" class="taskText taskText1 ">调试优化      </text><text font-size="11" x="523" y="255.5" text-height="20" class="taskTextOutsideRight taskTextOutside2 ">发布</text><text font-size="11" x="539" y="279.5" text-height="20" class="taskTextOutsideRight taskTextOutside2 ">验收</text></g><g><text x="10" y="86" class="sectionTitle sectionTitle0">项目确定</text><text x="10" y="182" class="sectionTitle sectionTitle1">项目实施</text><text x="10" y="266" class="sectionTitle sectionTitle2">发布验收</text></g><g class="today"><line x1="266" x2="266" y1="25" y2="315" class="today"></line></g><text x="304.5" y="25" class="titleText">项目开发流程</text></svg>